# xmcd
#
# Track frame offsets:
#	150
#	16778
#	41130
#	71203
#
# Disc length: 1201 seconds
#
# Revision: 1
# Processed by: cddbd v1.4PL0 Copyright (c) Steve Scherf et al.
# Submitted via: audiograbber 1.80.04
#
DISCID=3004af04
DTITLE=Maureen - Its My Life
DYEAR=1990
DGENRE=
TTITLE0=It's My Life (7")
TTITLE1=It's My Life (12" Meltdown Remix)
TTITLE2=Its My Life (12" Boilerhouse Remix)
TTITLE3=Its My Life (7" Boilerhouse Remix Edit)
EXTD=
EXTT0=
EXTT1=
EXTT2=
EXTT3=
PLAYORDER=
